<svg width="478" height="105" viewBox="0 0 478 105" fill="none" xmlns="http://www.w3.org/2000/svg">
<path d="M40.9037 -7.15256e-06H57.7037C67.7037 -7.15256e-06 75.6537 1.34999 81.5537 4.04999C87.4537 6.65 91.7537 10.1 94.4537 14.4C97.2537 18.7 98.8037 23.45 99.1037 28.65C99.4037 34.15 98.5537 39.15 96.5537 43.65C94.6537 48.15 91.9037 51.9 88.3037 54.9C84.8037 57.9 80.8037 60.05 76.3037 61.35C71.8037 62.55 67.1037 62.75 62.2037 61.95C57.3037 61.05 52.5537 58.95 47.9537 55.65V54.15C47.9537 54.15 48.4037 54.1 49.3037 54C50.3037 53.8 51.5537 53.4 53.0537 52.8C54.5537 52.2 56.1037 51.3 57.7037 50.1C59.4037 48.9 61.0037 47.2 62.5037 45C64.0037 42.7 65.1537 39.85 65.9537 36.45C66.3537 34.95 66.6037 33.4 66.7037 31.8C66.9037 30.2 66.9537 28.75 66.8537 27.45C66.6537 21.35 64.9037 16.5 61.6037 12.9C58.4037 9.3 53.9037 7.49999 48.1037 7.49999H42.4037C42.4037 7.49999 42.2537 6.89999 41.9537 5.69999C41.7537 4.4 41.5037 3.15 41.2037 1.94999C41.0037 0.649993 40.9037 -7.15256e-06 40.9037 -7.15256e-06ZM42.8537 -7.15256e-06V105H12.1037V-7.15256e-06H42.8537ZM12.5537 94.05V105H0.553711V103.5C0.753711 103.5 1.10371 103.5 1.60371 103.5C2.10371 103.5 2.40371 103.5 2.50371 103.5C5.10371 103.5 7.30371 102.6 9.10371 100.8C11.0037 98.9 12.0037 96.65 12.1037 94.05H12.5537ZM12.5537 10.95H12.1037C12.1037 8.34999 11.1537 6.14999 9.25371 4.35C7.35371 2.44999 5.10371 1.49999 2.50371 1.49999C2.40371 1.49999 2.10371 1.49999 1.60371 1.49999C1.20371 1.49999 0.903711 1.49999 0.703711 1.49999L0.553711 -7.15256e-06H12.5537V10.95ZM42.4037 94.05H42.8537C42.9537 96.65 43.9037 98.9 45.7037 100.8C47.6037 102.6 49.8537 103.5 52.4537 103.5C52.6537 103.5 53.0037 103.5 53.5037 103.5C54.0037 103.5 54.3037 103.5 54.4037 103.5V105H42.4037V94.05ZM135.547 9.59999L182.047 104.25H147.997L122.647 46.35L135.547 9.59999ZM107.797 95.85C106.697 98.35 106.847 100.25 108.247 101.55C109.647 102.85 111.197 103.5 112.897 103.5H113.947V105H83.0467V103.5C83.0467 103.5 83.2467 103.5 83.6467 103.5C84.0467 103.5 84.2467 103.5 84.2467 103.5C86.2467 103.5 88.3467 102.95 90.5467 101.85C92.7467 100.65 94.4967 98.65 95.7967 95.85H107.797ZM135.547 9.59999L135.397 32.55L103.897 104.55H91.7467L126.547 29.55C126.947 28.55 127.547 27.2 128.347 25.5C129.147 23.7 129.947 21.8 130.747 19.8C131.647 17.7 132.447 15.75 133.147 13.95C133.847 12.15 134.247 10.7 134.347 9.59999H135.547ZM145.597 79.2V85.95H108.247V79.2H145.597ZM144.247 95.85H177.847C179.247 98.65 181.047 100.65 183.247 101.85C185.447 102.95 187.547 103.5 189.547 103.5C189.547 103.5 189.747 103.5 190.147 103.5C190.547 103.5 190.747 103.5 190.747 103.5V105H137.947V103.5H139.147C140.847 103.5 142.397 102.85 143.797 101.55C145.197 100.25 145.347 98.35 144.247 95.85ZM226.122 15V105H196.722V15H226.122ZM257.622 98.1L263.772 105H225.822V98.1H257.622ZM268.422 73.5L264.072 105H236.172L240.522 98.1C244.422 98.1 248.122 97.15 251.622 95.25C255.222 93.25 258.372 90.45 261.072 86.85C263.772 83.15 265.722 78.7 266.922 73.5H268.422ZM197.172 95.7L197.022 105H187.272V103.5C187.272 103.5 187.522 103.5 188.022 103.5C188.522 103.5 188.822 103.5 188.922 103.5C191.022 103.5 192.822 102.75 194.322 101.25C195.922 99.75 196.722 97.9 196.722 95.7H197.172ZM225.822 24.3V15H235.722V16.5C235.622 16.5 235.322 16.5 234.822 16.5C234.322 16.5 234.072 16.5 234.072 16.5C231.872 16.5 230.022 17.25 228.522 18.75C227.022 20.15 226.222 22 226.122 24.3H225.822ZM197.172 24.3H196.722C196.722 22 195.922 20.15 194.322 18.75C192.822 17.25 191.022 16.5 188.922 16.5C188.822 16.5 188.522 16.5 188.022 16.5C187.522 16.5 187.272 16.5 187.272 16.5V15H197.172V24.3ZM318.359 9.59999L364.859 104.25H330.809L305.459 46.35L318.359 9.59999ZM290.609 95.85C289.509 98.35 289.659 100.25 291.059 101.55C292.459 102.85 294.009 103.5 295.709 103.5H296.759V105H265.859V103.5C265.859 103.5 266.059 103.5 266.459 103.5C266.859 103.5 267.059 103.5 267.059 103.5C269.059 103.5 271.159 102.95 273.359 101.85C275.559 100.65 277.309 98.65 278.609 95.85H290.609ZM318.359 9.59999L318.209 32.55L286.709 104.55H274.559L309.359 29.55C309.759 28.55 310.359 27.2 311.159 25.5C311.959 23.7 312.759 21.8 313.559 19.8C314.459 17.7 315.259 15.75 315.959 13.95C316.659 12.15 317.059 10.7 317.159 9.59999H318.359ZM328.409 79.2V85.95H291.059V79.2H328.409ZM327.059 95.85H360.659C362.059 98.65 363.859 100.65 366.059 101.85C368.259 102.95 370.359 103.5 372.359 103.5C372.359 103.5 372.559 103.5 372.959 103.5C373.359 103.5 373.559 103.5 373.559 103.5V105H320.759V103.5H321.959C323.659 103.5 325.209 102.85 326.609 101.55C328.009 100.25 328.159 98.35 327.059 95.85ZM433.985 44.25L463.985 93.3C466.085 96.7 468.235 99.3 470.435 101.1C472.735 102.8 475.135 103.7 477.635 103.8V105H462.185C461.285 105 459.485 105 456.785 105C454.185 104.9 451.085 104.5 447.485 103.8C443.985 103 440.435 101.65 436.835 99.75C433.235 97.85 430.135 95.1 427.535 91.5C426.735 90.4 425.835 89 424.835 87.3C423.835 85.6 422.785 83.75 421.685 81.75C420.585 79.75 419.535 77.8 418.535 75.9C417.535 73.9 416.585 72.05 415.685 70.35C414.885 68.65 414.235 67.3 413.735 66.3C413.235 65.3 412.985 64.75 412.985 64.65L433.985 44.25ZM460.385 15.9L422.735 63.15L412.985 64.65L447.335 15.9H460.385ZM469.385 14.85V16.2H468.785C465.985 16.2 463.385 16.8 460.985 18C458.685 19.1 456.735 20.6 455.135 22.5L442.835 22.2C443.935 20.7 444.135 19.35 443.435 18.15C442.835 16.85 441.685 16.2 439.985 16.2H438.785V14.85H468.785H469.385ZM409.235 14.85V105H379.835V14.85H409.235ZM380.135 95.7V105H370.385V103.5C370.385 103.5 370.585 103.5 370.985 103.5C371.385 103.5 371.685 103.5 371.885 103.5C374.085 103.5 375.935 102.75 377.435 101.25C378.935 99.75 379.735 97.9 379.835 95.7H380.135ZM408.785 95.7H409.235C409.235 97.9 409.985 99.75 411.485 101.25C413.085 102.75 414.985 103.5 417.185 103.5C417.385 103.5 417.685 103.5 418.085 103.5C418.485 103.5 418.685 103.5 418.685 103.5V105H408.785V95.7ZM408.785 24.3V14.85H418.685V16.35C418.585 16.35 418.335 16.35 417.935 16.35C417.635 16.35 417.385 16.35 417.185 16.35C414.985 16.35 413.085 17.1 411.485 18.6C409.985 20.1 409.235 22 409.235 24.3H408.785ZM380.135 24.3H379.835C379.735 22 378.935 20.1 377.435 18.6C375.935 17.1 374.085 16.35 371.885 16.35C371.785 16.35 371.535 16.35 371.135 16.35C370.735 16.35 370.435 16.35 370.235 16.35V14.85H380.135V24.3Z" fill="#434144"/>
</svg>
